<?xml version="1.0" encoding="UTF-8"?>
<svg width="391px" height="64px" viewBox="0 0 391 64" version="1.1" xmlns="http://www.w3.org/2000/svg" xmlns:xlink="http://www.w3.org/1999/xlink">
    <!-- Generator: sketchtool 61.2 (101010) - https://sketch.com -->
    <title>69A3CED6-029A-4236-BDE6-F75210273B89@1.50x</title>
    <desc>Created with sketchtool.</desc>
    <g id="Logo-Proof" stroke="none" stroke-width="1" fill="none" fill-rule="evenodd">
        <g id="Zeppelin-Corporate-Default" transform="translate(-115.000000, -147.000000)" fill="#27166F">
            <g id="Logo/Zeppelin-Corporate/Large/Default" transform="translate(50.000000, 83.000000)">
                <g id="Logo/Zeppelin-Corporate/Naked/Large/Default" transform="translate(65.124760, 64.000000)">
                    <path d="M335.272658,49 C337.669712,49 339.032791,49.7192869 339.83099,50.2045299 C340.357801,50.5353773 340.844089,50.9238168 341.254241,51.3906793 C342.382772,52.6736323 342.889935,54.637886 342.889935,56.3288841 C342.889935,58.8555785 341.779824,61.3038498 339.48101,62.5488166 C338.993495,62.8196214 338.311955,63.1308631 337.103604,63.3453012 C336.228041,63.5009221 335.604217,63.5205279 335.214942,63.5205279 C334.824438,63.5205279 332.838764,63.4421048 331.395865,62.8404525 C328.707775,61.6739088 327.441709,59.0491856 327.441709,56.2308553 C327.441709,53.178481 328.942323,51.4102851 329.87683,50.653012 C330.715554,49.9717113 332.487556,49 335.272658,49 Z M259.885803,49 C262.280401,49 263.644708,49.7192869 264.444135,50.2045299 C264.968491,50.5353773 265.457234,50.9238168 265.86493,51.3906793 C266.994689,52.6736323 267.501853,54.637886 267.501853,56.3288841 C267.501853,58.8555785 266.391742,61.3038498 264.092928,62.5488166 C263.605412,62.8196214 262.922645,63.1308631 261.71675,63.3453012 C260.839958,63.5009221 260.216135,63.5205279 259.826859,63.5205279 C259.437584,63.5205279 257.449453,63.4421048 256.009011,62.8404525 C253.320921,61.6739088 252.053626,59.0491856 252.053626,56.2308553 C252.053626,53.178481 253.554241,51.4102851 254.488748,50.653012 C255.326243,49.9717113 257.099474,49 259.885803,49 Z M288.774478,49.4288764 L288.774478,56.8913248 C288.794126,57.5138082 288.812546,58.1742778 289.009026,58.7379439 C289.280414,59.6128516 290.254217,61.284244 292.749511,61.284244 C294.441693,61.2658636 295.319712,60.5845629 295.786352,60.0797142 C296.643495,59.1080029 296.702439,57.903473 296.722087,56.6793374 L296.722087,56.6793374 L296.722087,49.4460314 L299.605429,49.4460314 L299.605429,56.5028854 C299.605429,56.7749156 299.585781,57.0469457 299.566133,57.339807 C299.547713,58.0002766 299.487541,59.9620795 298.104814,61.4790764 C297.598878,62.0231367 296.955407,62.4899993 296.275096,62.801241 C295.475668,63.1504688 294.695889,63.2681035 294.403625,63.3256955 C294.188725,63.364907 293.429822,63.4813163 292.708987,63.4813163 C292.339359,63.4813163 291.735184,63.4421048 291.365556,63.4028932 C290.741732,63.3256955 288.677466,63.0536653 287.273863,61.518288 C286.9816,61.2070463 286.513732,60.6237745 286.203048,59.6520632 C285.871489,58.6411404 285.851841,57.5922313 285.813773,56.5617027 L285.813773,56.5617027 L285.813773,49.4288764 L288.774478,49.4288764 Z M373.103621,49.0379862 C373.533421,49.0379862 373.942344,49.0588173 374.35004,49.0968035 C374.875623,49.1360151 376.492898,49.2144382 377.837557,50.3025587 C378.519096,50.8270133 378.772064,51.331862 378.92802,51.6431037 C379.239932,52.3623906 379.279228,53.0044798 379.298876,53.8009644 L379.298876,53.8009644 L376.55307,53.8009644 C376.532194,53.120889 376.492898,52.8488589 376.33817,52.5376172 C375.748731,51.2251194 373.866891,51.1247911 373.332649,51.1186996 L373.200633,51.1186492 C372.402434,51.1186492 371.097071,51.2926504 370.435179,51.7215268 C370.260803,51.8367107 369.6554,52.2655871 369.6554,53.0044798 C369.6554,53.2765099 369.77206,53.8205702 370.376235,54.1122061 C370.844103,54.3266443 371.817906,54.4626593 372.323842,54.5202513 L372.323842,54.5202513 L375.363139,54.9282965 C375.792939,55.0054943 376.201862,55.0643116 376.610786,55.1807209 C378.557164,55.6671892 379.220284,56.7553098 379.492899,57.5530198 C379.571491,57.7858384 379.727447,58.2710813 379.727447,58.9327763 C379.727447,61.6346973 377.351269,62.6260143 376.610786,62.8980445 C375.850655,63.1504688 375.148239,63.2681035 374.369688,63.3453012 C373.844104,63.4028932 373.297645,63.4237243 372.752413,63.4237243 C370.727443,63.4237243 368.039353,62.9960734 366.929242,61.1286232 C366.461375,60.3125328 366.364363,59.4964423 366.267351,58.5639426 L366.267351,58.5639426 L369.110168,58.582323 C369.129816,58.7575497 369.129816,59.3996388 369.461376,59.9044876 C369.889948,60.6237745 370.980411,61.284244 372.909597,61.284244 C373.103621,61.284244 374.875623,61.284244 375.908371,60.6433802 C376.12327,60.5073652 376.317294,60.3125328 376.45483,60.1189257 C376.727446,59.7304863 376.745866,59.380033 376.745866,59.186426 C376.745866,58.7379439 376.570262,58.4267022 376.45483,58.2906871 C376.00661,57.6890349 375.090523,57.5714002 374.428632,57.4745967 L374.428632,57.4745967 L370.883399,57.0089595 C370.318519,56.9109306 369.694696,56.7945213 369.148236,56.5617027 C368.467925,56.2884472 366.75241,55.4147648 366.75241,53.1993122 C366.75241,51.8575419 367.41553,51.0990434 367.76551,50.7302097 C368.642301,49.855302 370.220279,49.0379862 373.103621,49.0379862 Z M241.710191,49.0379862 C242.138763,49.0379862 242.547686,49.0588173 242.95661,49.0968035 C243.482193,49.1360151 245.099468,49.2144382 246.444127,50.3025587 C247.124438,50.8270133 247.377406,51.331862 247.53459,51.6431037 C247.845274,52.3623906 247.88457,53.0044798 247.905446,53.8009644 L247.905446,53.8009644 L245.158412,53.8009644 C245.138764,53.120889 245.099468,52.8488589 244.943512,52.5376172 C244.355164,51.2251194 242.473445,51.1247911 241.939217,51.1186996 L241.807203,51.1186492 C241.009004,51.1186492 239.702413,51.2926504 239.041749,51.7215268 C238.866145,51.8367107 238.260742,52.2655871 238.260742,53.0044798 C238.260742,53.2765099 238.37863,53.8205702 238.981577,54.1122061 C239.449445,54.3266443 240.424476,54.4626593 240.930412,54.5202513 L240.930412,54.5202513 L243.969709,54.9282965 C244.398281,55.0054943 244.807204,55.0643116 245.216128,55.1807209 C247.163734,55.6671892 247.825626,56.7553098 248.099469,57.5530198 C248.176833,57.7858384 248.334017,58.2710813 248.334017,58.9327763 C248.334017,61.6346973 245.956611,62.6260143 245.216128,62.8980445 C244.455997,63.1504688 243.754809,63.2681035 242.97503,63.3453012 C242.450674,63.4028932 241.904215,63.4237243 241.358983,63.4237243 C239.332785,63.4237243 236.644695,62.9960734 235.534584,61.1286232 C235.067945,60.3125328 234.970933,59.4964423 234.872693,58.5639426 L234.872693,58.5639426 L237.716738,58.582323 C237.736386,58.7575497 237.736386,59.3996388 238.066718,59.9044876 C238.496518,60.6237745 239.586981,61.284244 241.514939,61.284244 C241.710191,61.284244 243.482193,61.284244 244.514941,60.6433802 C244.728612,60.5073652 244.923864,60.3125328 245.0614,60.1189257 C245.332788,59.7304863 245.352436,59.380033 245.352436,59.186426 C245.352436,58.7379439 245.176832,58.4267022 245.0614,58.2906871 C244.611952,57.6890349 243.697093,57.5714002 243.035202,57.4745967 L243.035202,57.4745967 L239.488741,57.0089595 C238.923861,56.9109306 238.301266,56.7945213 237.754806,56.5617027 C237.074495,56.2884472 235.35898,55.4147648 235.35898,53.1993122 C235.35898,51.8575419 236.0221,51.0990434 236.37208,50.7302097 C237.248871,49.855302 238.826849,49.0379862 241.710191,49.0379862 Z M135.855455,49.0968035 C136.185787,49.0968035 138.523896,49.0968035 140.023283,50.0305286 C140.179239,50.1273321 140.589391,50.4005876 140.93937,50.7681959 C141.114974,50.9630283 141.466182,51.331862 141.757218,51.9151338 C142.088777,52.6160403 142.244733,53.6073574 142.264381,53.8009644 L142.264381,53.8009644 L139.302448,53.8009644 C139.302448,53.6453436 139.2828,53.178481 139.04948,52.808422 C138.6995,52.1687835 137.569741,51.27427 135.660203,51.27427 C135.154267,51.27427 134.589388,51.331862 134.101872,51.4691024 C131.842354,52.0327685 130.886971,53.9185991 130.886971,56.1732633 C130.886971,56.6389005 130.927495,58.6031542 132.134618,59.9449245 C132.972113,60.8578184 134.23818,61.1874405 135.464951,61.1874405 C136.614358,61.1874405 138.017961,60.9337908 138.757216,60.0405026 C139.14772,59.5540343 139.2828,59.0687913 139.420336,58.5247311 L139.420336,58.5247311 L142.342973,58.5247311 C142.302449,58.8935647 142.225085,59.9240933 141.62091,60.8761988 C141.290578,61.3822729 140.725699,62.0231367 139.4977,62.5880281 C138.251281,63.1700746 137.004862,63.3845128 135.563191,63.3845128 C134.842356,63.3845128 132.719146,63.3845128 130.809607,62.1995887 C128.706045,60.8761988 127.965562,58.7379439 127.965562,56.2884472 C127.98521,54.6758722 128.354837,53.5865262 128.607805,52.9652682 C129.193561,51.5659059 130.478047,49.6996811 134.042928,49.2144382 C134.257828,49.193607 135.095323,49.0968035 135.855455,49.0968035 Z M84.3114275,49.4864683 C84.5066793,50.1653183 84.7019312,50.846619 84.876307,51.5070886 C85.1108548,52.3819964 85.3245266,53.2569041 85.5381984,54.1318119 C85.8316902,55.259144 86.1423739,56.4060819 86.4346377,57.5714002 C86.5709456,58.0970801 86.7072534,58.6411404 86.8251413,59.1655949 C86.9602212,59.7304863 87.0584611,60.2745466 87.175121,60.8369873 C87.2917809,60.235335 87.4084408,59.6324574 87.5643967,59.0491856 C87.6810566,58.582323 87.8173645,58.1154605 87.9549004,57.6510487 L87.9549004,57.6510487 L90.1751224,49.4864683 L93.9156072,49.5048487 C94.148927,50.282953 94.3625988,51.0610572 94.5578506,51.8367107 C94.8304664,52.8868451 95.0834342,53.9369795 95.3560499,54.9871139 C95.6495417,56.1524322 95.9798734,57.2993701 96.2917851,58.4671391 L96.2917851,58.4671391 L96.8566646,60.8761988 L97.4215441,58.4855195 L99.7203581,49.5440603 L102.447744,49.5440603 L100.597149,55.7247812 C100.188226,57.163355 99.7780741,58.6227599 99.3495025,60.0405026 C99.0388187,61.090637 98.726907,62.1407714 98.3953473,63.1700746 L98.3953473,63.1700746 L94.9471263,63.1700746 L92.4542884,53.8781621 L91.9090569,51.5659059 L91.4608373,53.5865262 L89.0257154,63.1308631 L85.4608345,63.1308631 L83.3572723,56.4060819 L81.1554702,49.4864683 Z M188.529241,49.4668625 C189.679876,51.759513 190.828055,54.0742199 191.957814,56.3668703 C192.698707,57.8707967 193.429776,59.3736339 194.158297,60.8764711 L195.250079,63.1308631 L192.09535,63.1308631 L190.653679,60.1373061 L182.295919,60.1373061 L180.835828,63.0928769 L177.776882,63.0928769 L184.750688,49.4668625 L188.529241,49.4668625 Z M274.788798,49.4668625 L274.788798,60.8761988 L282.560804,60.8761988 L282.560804,63.1308631 L271.825637,63.1308631 L271.825637,49.4668625 L274.788798,49.4668625 Z M116.103092,49.4668625 L116.103092,51.701921 L108.467395,51.701921 L108.467395,54.7935068 L115.771532,54.7935068 L115.771532,57.0285653 L108.467395,57.0285653 L108.467395,60.8761988 L116.512016,60.8761988 L116.512016,63.1124827 L105.525109,63.1124827 L105.525109,49.4668625 L116.103092,49.4668625 Z M347.214947,49.4288764 L351.67504,49.4460314 C352.318511,50.3601507 352.980402,51.2926504 353.585806,52.1883893 C353.916138,52.7116185 354.247697,53.2176926 354.597677,53.7433724 C355.065545,54.4418282 355.57148,55.1611151 356.039348,55.8620216 C356.564931,56.6389005 357.052447,57.4366105 357.558382,58.2134894 L357.558382,58.2134894 L359.175657,60.8369873 L359.077417,58.5051253 L359.077417,49.4864683 L361.473243,49.4864683 L361.473243,63.1124827 L357.579258,63.1124827 C356.955435,62.1995887 356.351259,61.3038498 355.745856,60.4105616 C355.123261,59.4964423 354.519085,58.6031542 353.916138,57.7074153 C353.292314,56.7945213 352.650071,55.9000078 352.045895,54.9871139 C351.67504,54.4418282 351.34348,53.8977679 350.9935,53.3537076 L350.9935,53.3537076 L349.689365,51.2546642 L349.786377,53.6073574 L349.786377,63.0720457 L347.214947,63.0720457 L347.214947,49.4288764 Z M316.884602,49.4460314 L316.884602,51.7803441 L311.195283,51.7803441 L311.195283,63.1124827 L308.293521,63.1124827 L308.293521,51.7399072 L302.60543,51.7399072 L302.60543,49.4460314 L316.884602,49.4460314 Z M223.010223,49.4668625 L223.010223,51.701921 L215.373298,51.701921 L215.373298,54.7935068 L222.678663,54.7935068 L222.678663,57.0285653 L215.373298,57.0285653 L215.373298,60.8761988 L223.419147,60.8761988 L223.419147,63.1124827 L212.43224,63.1124827 L212.43224,49.4668625 L223.010223,49.4668625 Z M209.139975,49.4460314 L209.139975,51.7803441 L203.451884,51.7803441 L203.451884,63.1124827 L200.548895,63.1124827 L200.548895,51.7399072 L194.860804,51.7399072 L194.860804,49.4460314 L209.139975,49.4460314 Z M174.678641,49.4668625 L174.678641,51.701921 L167.042944,51.701921 L167.042944,54.7935068 L174.349537,54.7935068 L174.349537,57.0285653 L167.042944,57.0285653 L167.042944,60.8761988 L175.088793,60.8761988 L175.088793,63.1124827 L164.101886,63.1124827 L164.101886,49.4668625 L174.678641,49.4668625 Z M323.116696,49.4668625 L323.116696,63.0928769 L320.214935,63.0928769 L320.214935,49.4668625 L323.116696,49.4668625 Z M152.842364,49.4460314 C154.284035,49.4668625 155.706058,49.4864683 156.991772,50.1273321 C157.497708,50.4005876 158.919731,51.2350585 158.919731,53.0620717 C158.919731,54.6758722 157.945928,55.5507799 157.458412,55.8816274 C156.932829,56.2308553 156.192345,56.4440681 156.036389,56.4832796 C157.147728,56.8533387 157.575072,57.105763 157.945928,57.5138082 C158.344345,57.97999 158.465265,58.4936129 158.542415,59.0520952 L158.569751,59.2636237 L158.862015,62.1787576 C158.931874,62.5763191 158.985239,62.7124704 159.18684,62.9839525 L159.26971,63.0928769 L156.173925,63.0928769 C155.901397,62.0813414 155.881931,61.8263037 155.850061,61.2642596 L155.842365,61.1286232 L155.783422,60.0797142 C155.765002,59.9620795 155.725706,59.4572308 155.589398,59.0491856 C155.142793,57.8245486 154.093109,57.7152915 152.964742,57.7078893 L149.082231,57.7074153 L149.082231,63.0928769 L146.121526,63.0928769 L146.121526,49.4460314 L152.842364,49.4460314 Z M335.25301,51.1578607 C334.591118,51.1578607 332.623864,51.2926504 331.357797,52.8868451 C330.909578,53.4701169 330.382766,54.403842 330.382766,56.0740091 C330.382766,57.2809896 330.695906,58.6607461 331.435161,59.6520632 C331.883381,60.235335 333.03156,61.324681 335.077406,61.324681 C336.246461,61.324681 337.532176,60.9938335 338.370899,60.235335 C338.993495,59.7096552 339.986946,58.4083218 339.986946,56.3092784 C339.986946,55.201552 339.733978,53.976191 339.14945,53.0620717 C338.661935,52.3244044 337.494108,51.1578607 335.25301,51.1578607 Z M259.864927,51.1578607 C259.203036,51.1578607 257.235781,51.2926504 255.969715,52.8868451 C255.521495,53.4701169 254.994683,54.403842 254.994683,56.0740091 C254.994683,57.2809896 255.306595,58.6607461 256.048307,59.6520632 C256.495298,60.235335 257.645933,61.324681 259.690551,61.324681 C260.859606,61.324681 262.145321,60.9938335 262.982817,60.235335 C263.605412,59.7096552 264.598863,58.4083218 264.598863,56.3092784 C264.598863,55.201552 264.345895,53.976191 263.761368,53.0620717 C263.27508,52.3244044 262.104797,51.1578607 259.864927,51.1578607 Z M186.542339,51.5279197 L183.366734,57.903473 L189.620932,57.903473 L186.542339,51.5279197 Z M152.803068,51.6823152 L149.062583,51.6823152 L149.062583,55.4919626 L153.251288,55.4919626 C154.147727,55.4343706 154.965574,55.3755533 155.550102,54.6942526 C155.959025,54.2286154 155.978673,53.7629782 155.978673,53.5289343 C155.978673,53.178481 155.860785,52.3819964 154.983994,51.9935569 C154.478059,51.759513 153.913179,51.7215268 152.803068,51.6823152 Z" id="Claim"></path>
                    <path d="M348.880583,4.01948135e-07 L367.178634,22.6960246 L367.178634,4.01948135e-07 L378.610932,4.01948135e-07 L378.610932,38.0000004 L367.178634,38.0000004 L348.707775,15.0678902 L348.707775,38.0000004 L337.244837,38.0000004 L337.244837,4.01948135e-07 L348.880583,4.01948135e-07 Z M328.568889,4.01948135e-07 L328.568889,38.0000004 L315.510234,38.0000004 L315.510234,4.01948135e-07 L328.568889,4.01948135e-07 Z M297.014863,4.01948135e-07 L297.014863,30.4660551 L311.149586,30.4660551 L311.149586,38.0000004 L283.97214,38.0000004 L283.97214,4.01948135e-07 L297.014863,4.01948135e-07 Z M275.739856,4.01948135e-07 L275.739856,7.54128473 L258.288688,7.54128473 L258.288688,15.2440369 L274.6356,15.2440369 L274.6356,22.7853213 L258.288688,22.7853213 L258.288688,30.4110093 L276.822051,30.4110093 L276.822051,38.0000004 L245.239837,38.0000004 L245.239837,4.01948135e-07 L275.739856,4.01948135e-07 Z M157.319727,4.01948135e-07 L157.319727,7.54128473 L139.868558,7.54128473 L139.868558,15.2440369 L156.216696,15.2440369 L156.216696,22.7853213 L139.868558,22.7853213 L139.868558,30.4110093 L158.384764,30.4110093 L158.384764,38.0000004 L126.820933,38.0000004 L126.820933,4.01948135e-07 L157.319727,4.01948135e-07 Z M119.240662,4.01948135e-07 L119.240662,7.39571898 L98.6054128,30.4623854 L119.240662,30.4623854 L119.240662,38.0000004 L81.1554702,38.0000004 L81.1554702,30.4623854 L101.533346,7.39571898 L82.2450193,7.39571898 L82.2450193,4.01948135e-07 L119.240662,4.01948135e-07 Z M219.646878,0.000833404157 C220.838099,0.00904152798 227.056055,0.0977398025 229.967767,1.0532114 C237.153398,3.38226336 240.114422,8.62263028 240.114422,14.3522938 C240.114422,19.9009176 236.762435,25.2819573 230.294999,27.6256882 C227.834016,28.5272172 224.234459,28.9724772 222.245328,28.9724772 C221.548439,28.9724772 220.341937,28.9849846 219.050927,29.0090374 L218.72666,29.0152906 L218.72666,37.9987768 L205.391022,37.9987768 L205.391022,2.21689334e-12 L213.873326,0.00489336826 L213.873326,2.21689334e-12 L219.646878,0.000833404157 Z M179.930723,0.000833404157 C181.123692,0.00904152798 187.350513,0.0977398025 190.26112,1.0532114 C197.438172,3.38226336 200.411452,8.62263028 200.411452,14.3522938 C200.411452,19.9009176 197.055788,25.2819573 190.587127,27.6256882 C188.118789,28.5272172 184.519233,28.9724772 182.526425,28.9724772 C181.831798,28.9724772 180.630692,28.9849846 179.347247,29.0090374 L179.024916,29.0152906 L179.024916,37.9987768 L165.677021,37.9987768 L165.677021,2.21689334e-12 L174.166679,0.00489336826 L174.166679,2.21689334e-12 L179.930723,0.000833404157 Z M220.87643,7.68045781 L218.72666,7.68073427 L218.72666,20.8489298 L220.86654,20.8122326 L220.9032,20.812299 C221.275916,20.8111003 224.395272,20.756779 225.862042,19.2905201 C227.363389,17.7749238 227.478595,16.0305813 227.478595,13.8434253 C227.478595,11.6513764 226.963847,9.75657522 224.993099,8.43914404 C223.734039,7.62066889 221.059391,7.67569003 220.87643,7.68045781 Z M181.163681,7.68045781 L179.024916,7.68073427 L179.024916,20.8489298 L181.153765,20.8122326 L181.190399,20.812299 C181.562857,20.8111003 184.68012,20.756779 186.148042,19.2905201 C187.649389,17.7749238 187.760917,16.0305813 187.760917,13.8434253 C187.760917,11.6513764 187.254749,9.75657522 185.28155,8.43914404 C184.028406,7.62066889 181.347108,7.67569003 181.163681,7.68045781 Z M387.022152,0.269113549 C388.074934,0.269113549 388.972065,0.636086022 389.70987,1.37247745 C390.452577,2.10275267 390.819029,2.99082606 390.819029,4.03302788 C390.819029,5.07889943 390.452577,5.97308902 389.70987,6.71804314 C388.972065,7.45688106 388.074934,7.8287465 387.022152,7.8287465 C385.973048,7.8287465 385.082044,7.45688106 384.34424,6.71804314 C383.608886,5.97798199 383.24366,5.0837924 383.24366,4.03302788 C383.24366,2.9920493 383.612563,2.10275267 384.356495,1.37247745 C385.091849,0.636086022 385.980401,0.269113549 387.022152,0.269113549 Z M387.027055,0.771865837 C386.125021,0.771865837 385.351674,1.09235513 384.703337,1.73700344 C384.067256,2.36574961 383.751054,3.13516856 383.751054,4.03547437 C383.751054,4.94801258 384.067256,5.72110126 384.703337,6.3608566 C385.339418,7.00428167 386.120119,7.32354773 387.027055,7.32354773 C387.943796,7.32354773 388.722045,7.00428167 389.354449,6.3608566 C389.992981,5.72110126 390.316537,4.94801258 390.316537,4.03547437 C390.316537,3.13516856 389.992981,2.36574961 389.354449,1.73700344 C388.713466,1.09235513 387.940119,0.771865837 387.027055,0.771865837 Z M386.952294,1.94740099 C387.468267,1.94740099 387.849425,1.99510741 388.093318,2.09541322 C388.518597,2.27278325 388.737978,2.62874655 388.737978,3.14984746 C388.737978,3.52415939 388.601937,3.7981655 388.329856,3.9718658 C388.186462,4.0660554 387.985466,4.13333369 387.726866,4.17737039 C388.05655,4.22385357 388.297991,4.36207987 388.446287,4.57737038 C388.565905,4.75645295 388.640813,4.92927252 388.665991,5.09958689 L388.675473,5.22691166 L388.675473,5.52782909 C388.675473,5.62568842 388.676698,5.72844071 388.682826,5.83608597 C388.687422,5.91957224 388.694086,5.98035204 388.703336,6.0210057 L388.713466,6.05504621 L388.737978,6.10642236 L388.057776,6.10642236 C388.05655,6.09052022 388.05655,6.07461807 388.046745,6.06605538 L388.043834,6.04403704 L388.043834,6.04403704 L388.038166,6.01834896 L388.02591,5.88134591 L388.02591,5.5547404 C388.02591,5.07278322 387.893547,4.75474041 387.621466,4.60061197 C387.488052,4.52092652 387.265494,4.47988552 386.956882,4.46978575 L386.795418,4.46727864 L386.212038,4.46727864 L386.212038,6.10642236 L385.493842,6.10642236 L385.493842,1.94740099 L386.952294,1.94740099 Z M386.846893,2.4477068 L386.212038,2.4477068 L386.212038,3.96207987 L386.876307,3.96207987 C387.197412,3.96207987 387.430274,3.93272207 387.587149,3.86911351 C387.876388,3.7541288 388.02591,3.5363918 388.02591,3.21590251 C388.02591,2.9125386 387.930314,2.7094805 387.739122,2.60305848 C387.555284,2.49908294 387.257466,2.4477068 386.846893,2.4477068 Z" id="ZEPPELIN"></path>
                    <path d="M27.6258377,25.1320548 L15.4763926,38.8541968 L15.4763926,49.9941413 L43.6368511,49.9941413 L43.6368511,64 L-3.38026046e-13,64 L-3.38026046e-13,25.1320548 L27.6258377,25.1320548 Z M59.1132438,-4.61852778e-13 L59.1132438,38.8666953 L31.487406,38.8666953 L43.6368511,25.1458032 L43.6368511,14.0058587 L15.4763926,14.0058587 L15.4763926,-4.61852778e-13 L59.1132438,-4.61852778e-13 Z" id="Z"></path>
                </g>
            </g>
        </g>
    </g>
</svg>